<svg width="61" height="60" viewBox="0 0 61 60" fill="none" xmlns="http://www.w3.org/2000/svg">
<path d="M44.6368 45C48.6323 45 51.8805 41.805 51.8805 37.875V22.125C51.8805 18.195 48.6323 15 44.6368 15H16.3633C12.3678 15 9.11951 18.195 9.11951 22.125V37.875C9.11951 41.805 12.3678 45 16.3633 45H44.6368ZM46.1656 37.875C46.1656 38.7038 45.4831 39.375 44.6406 39.375H16.3633C15.5207 39.375 14.8383 38.7038 14.8383 37.875V22.125C14.8383 21.2962 15.5207 20.625 16.3633 20.625H44.6368C45.4793 20.625 46.1618 21.2962 46.1618 22.125V37.875H46.1656Z" fill="white"/>
<path d="M16.3633 45H24.9223V47.9175H20.2101C19.5734 47.9175 19.0549 48.4275 19.0549 49.0537V49.7812C19.0549 50.4075 19.5734 50.9175 20.2101 50.9175H40.79C41.4267 50.9175 41.9452 50.4075 41.9452 49.7812V49.0537C41.9452 48.4275 41.4267 47.9175 40.79 47.9175H36.0777V45H44.6368" fill="url(#paint0_linear_132_137)"/>
<defs>
<linearGradient id="paint0_linear_132_137" x1="20.1909" y1="44.8433" x2="25.0391" y2="56.2573" gradientUnits="userSpaceOnUse">
<stop stop-color="#D9D9D9"/>
<stop offset="1" stop-color="white"/>
</linearGradient>
</defs>
</svg>
