<svg width="61" height="60" viewBox="0 0 61 60" fill="none" xmlns="http://www.w3.org/2000/svg">
<path d="M46.7413 32.2087L44.591 30.0937C43.3977 28.92 41.461 28.92 40.2676 30.0937L35.7041 34.5825V12.4237C35.7041 10.7662 34.3392 9.42371 32.6541 9.42371H29.6041C27.919 9.42371 26.5541 10.7662 26.5541 12.4237V34.5825L21.9905 30.0937C20.7972 28.92 18.8605 28.92 17.6671 30.0937L15.5016 32.2237C14.3198 33.3862 14.3198 35.2762 15.5016 36.4387L24.6593 45.4462L28.975 49.6912C30.1645 50.8612 32.0936 50.8612 33.2831 49.6912L37.5989 45.4462L46.7413 36.4537C47.9308 35.2837 47.9308 33.3825 46.7413 32.2125V32.2087Z" fill="white"/>
</svg>
