<svg width="61" height="60" viewBox="0 0 61 60" fill="none" xmlns="http://www.w3.org/2000/svg">
<path d="M50.0734 42.7126C51.2629 43.5638 52.0407 44.9401 52.0407 46.5001C52.0407 49.0876 49.9057 51.1876 47.275 51.1876C45.689 51.1876 44.2899 50.4226 43.4244 49.2526V49.2601L36.4437 42.3938C39.2002 40.8188 41.4991 38.5576 43.1004 35.8463L50.081 42.7088H50.0734V42.7126Z" fill="url(#paint0_linear_132_125)"/>
<path d="M45.567 26.8163C45.567 30.105 44.6672 33.1913 43.1003 35.8463L36.4094 29.265L35.5935 30.0675C36.0014 29.0625 36.2264 27.9638 36.2264 26.8163C36.2264 21.945 32.2118 18 27.2632 18C22.3145 18 18.3 21.945 18.3 26.8163C18.3 31.6875 22.3107 35.6325 27.2632 35.6325C28.4298 35.6325 29.5469 35.4113 30.5686 35.01L29.7527 35.8125L36.4437 42.3938C33.7444 43.935 30.6067 44.82 27.2632 44.82C17.1524 44.82 8.95935 36.7575 8.95935 26.8163C8.95935 16.875 17.1524 8.8125 27.2632 8.8125C37.3739 8.8125 45.567 16.8713 45.567 26.8163Z" fill="white"/>
<path d="M36.4094 29.265L43.1004 35.8463C41.4991 38.5575 39.2002 40.8188 36.4437 42.3938L29.7528 35.8125L30.5687 35.01C32.86 34.1175 34.6862 32.3213 35.5936 30.0675L36.4094 29.265Z" fill="white"/>
<defs>
<linearGradient id="paint0_linear_132_125" x1="38.5552" y1="35.4402" x2="52.5431" y2="42.4475" gradientUnits="userSpaceOnUse">
<stop stop-color="#D9D9D9"/>
<stop offset="1" stop-color="white"/>
</linearGradient>
</defs>
</svg>
