<svg width="19" height="10" viewBox="0 0 19 10" fill="none" xmlns="http://www.w3.org/2000/svg">
<path fill-rule="evenodd" clip-rule="evenodd" d="M0.214666 0.209794C0.28254 0.143292 0.363172 0.0905301 0.451943 0.0545301C0.540714 0.0185301 0.63588 0 0.73199 0C0.8281 0 0.923266 0.0185301 1.01204 0.0545301C1.10081 0.0905301 1.18144 0.143292 1.24931 0.209794L9.50019 8.27488L17.7511 0.209794C17.819 0.1434 17.8997 0.0907329 17.9884 0.0548005C18.0772 0.0188681 18.1723 0.000373881 18.2684 0.000373881C18.3645 0.000373881 18.4596 0.0188681 18.5484 0.0548005C18.6371 0.0907329 18.7178 0.1434 18.7857 0.209794C18.8537 0.276189 18.9075 0.35501 18.9443 0.441759C18.9811 0.528507 19 0.621484 19 0.71538C19 0.809275 18.9811 0.902252 18.9443 0.989001C18.9075 1.07575 18.8537 1.15457 18.7857 1.22096L10.0175 9.79021C9.94964 9.85671 9.86901 9.90947 9.78024 9.94547C9.69147 9.98147 9.5963 10 9.50019 10C9.40408 10 9.30892 9.98147 9.22014 9.94547C9.13137 9.90947 9.05074 9.85671 8.98287 9.79021L0.214666 1.22096C0.14662 1.15463 0.0926328 1.07583 0.0557969 0.989072C0.018961 0.902316 0 0.809309 0 0.71538C0 0.62145 0.018961 0.528444 0.0557969 0.441687C0.0926328 0.35493 0.14662 0.276128 0.214666 0.209794V0.209794Z" fill="#221E22"/>
</svg>
