<svg width="60" height="60" viewBox="0 0 60 60" fill="none" xmlns="http://www.w3.org/2000/svg">
<rect width="60" height="60" rx="30" fill="#CD5A32"/>
<path d="M43.4157 15.4446C40.4969 10.4993 36.3531 6.38946 31.384 3.51132L30.5 3L29.616 3.51132C24.5623 6.42785 20.3659 10.6239 17.4491 15.6774C14.5322 20.7309 12.9977 26.4634 13 32.2983C13 32.6784 13.0066 33.0645 13.0195 33.4458C13.1952 38.6159 15.1724 42.9663 18.7374 46.0266C21.4654 48.3686 24.9648 49.7983 28.735 50.1393V56.2375H32.2659V27.9903H28.7346V46.5858C22.7691 45.8947 16.8318 41.6806 16.5481 33.3258C16.5364 32.9842 16.5305 32.6385 16.5305 32.2983C16.541 27.2601 17.8277 22.3066 20.2705 17.9003C22.7133 13.4939 26.2326 9.77818 30.5 7.09992C34.7673 9.77824 38.2865 13.494 40.7293 17.9003C43.172 22.3067 44.4586 27.2601 44.4691 32.2983C44.4691 32.6385 44.4631 32.9842 44.4514 33.3259C44.2246 40.0095 40.3791 44.0429 35.7959 45.7431V49.48C38.1742 48.8059 40.3797 47.6281 42.2626 46.0264C45.8276 42.9661 47.8048 38.6157 47.9805 33.4457C47.9934 33.0644 48 32.6783 48 32.2981C48.0032 26.3719 46.4203 20.5528 43.4157 15.4446V15.4446Z" fill="#3A4F2D"/>
</svg>
