<svg width="572" height="427" viewBox="0 0 572 427" fill="none" xmlns="http://www.w3.org/2000/svg">
<path d="M476.311 17.3372H119.417V305.76H476.311V17.3372Z" stroke="#DDDDDD" stroke-width="2" stroke-linecap="round" stroke-linejoin="round"/>
<path d="M320.427 56.1999H263.516V84.0207L248.994 87.4913L240.313 51.1022L314.963 33.2886L320.427 56.1999Z" stroke="#DDDDDD" stroke-miterlimit="10"/>
<path d="M268.905 248.914H236.401V291.492H268.905V248.914Z" fill="#DDDDDD"/>
<path d="M217.919 255.432H185.414V291.483H217.919V255.432Z" stroke="#DDDDDD" stroke-linecap="round" stroke-linejoin="round"/>
<path d="M421.863 138.223H389.359V291.492H421.863V138.223Z" stroke="#DDDDDD" stroke-linecap="round" stroke-linejoin="round"/>
<path d="M370.877 138.223H338.373V291.492H370.877V138.223Z" fill="#DDDDDD"/>
<path d="M414.584 30.8713L369.833 59.5575L383.847 68.201C375.326 81.9703 330.877 139.85 330.877 139.85L280.652 144.553C262.077 180.18 219.433 242.857 219.433 242.857H88.2201V274.233L229.807 272.71L298.87 167.248L347.308 166.129L404.849 78.4339L415.901 82.6005L414.584 30.8713Z" fill="#DDDDDD" stroke="#DDDDDD" stroke-linecap="round" stroke-linejoin="round"/>
<path d="M319.891 195.896H287.387V291.492H319.891V195.896Z" stroke="#DDDDDD" stroke-linecap="round" stroke-linejoin="round"/>
<path d="M496.551 305.76H99.1868V322.097H496.551V305.76Z" stroke="#DDDDDD" stroke-width="2" stroke-linecap="round" stroke-linejoin="round"/>
<path d="M290.415 66.8185C290.396 66.7566 290.358 66.7026 290.305 66.6651C290.252 66.6277 290.188 66.6088 290.124 66.6116H286.136C286.071 66.6088 286.007 66.6277 285.954 66.6651C285.902 66.7026 285.863 66.7566 285.844 66.8185L280.135 82.2056C280.131 82.2399 280.131 82.2747 280.135 82.309V82.4219C280.133 82.5053 280.163 82.5863 280.22 82.6476C280.285 82.704 280.369 82.7341 280.455 82.7323H284.405C284.47 82.7387 284.536 82.7213 284.59 82.6832C284.643 82.6452 284.681 82.5892 284.697 82.5254L285.571 80.2211H290.735L291.591 82.5254C291.606 82.5892 291.644 82.6452 291.698 82.6832C291.751 82.7213 291.817 82.7387 291.882 82.7323H295.851C295.932 82.7331 296.009 82.7028 296.068 82.6476C296.124 82.5863 296.155 82.5053 296.152 82.4219V82.309C296.156 82.2778 296.156 82.2462 296.152 82.215L290.415 66.8185ZM287.029 76.2238L288.12 73.2423L289.249 76.2238H287.029Z" fill="#DDDDDD"/>
<path d="M309.376 68.4923C308.737 67.8731 307.979 67.39 307.147 67.0721C306.267 66.7523 305.337 66.5931 304.401 66.6019H298.259C298.216 66.5974 298.173 66.6027 298.132 66.6172C298.091 66.6317 298.054 66.6551 298.023 66.6857C297.993 66.7164 297.969 66.7534 297.955 66.7942C297.94 66.835 297.935 66.8786 297.939 66.9216V82.4122C297.938 82.4983 297.968 82.5821 298.024 82.6473C298.088 82.7053 298.173 82.7357 298.259 82.7319H304.373C305.309 82.7407 306.239 82.5815 307.119 82.2617C307.95 81.9438 308.709 81.4607 309.348 80.8415C310.047 80.1288 310.568 79.2623 310.872 78.3115C311.599 75.9362 311.599 73.3976 310.872 71.0223C310.578 70.0736 310.066 69.2071 309.376 68.4923ZM305.896 77.8412C305.579 78.1889 305.19 78.464 304.757 78.6474C304.324 78.8309 303.856 78.9184 303.385 78.904H302.642C302.622 78.9072 302.601 78.9055 302.581 78.8991C302.561 78.8927 302.543 78.8817 302.529 78.867C302.514 78.8523 302.503 78.8344 302.496 78.8147C302.49 78.795 302.488 78.774 302.492 78.7535V70.5615C302.492 70.4486 302.548 70.4016 302.642 70.4016H303.385C303.856 70.3846 304.325 70.471 304.758 70.6546C305.192 70.8382 305.581 71.1146 305.896 71.4644C306.528 72.4095 306.865 73.5207 306.865 74.6575C306.865 75.7942 306.528 76.9055 305.896 77.8506V77.8412Z" fill="#DDDDDD"/>
<path d="M323.287 76.5436C323.08 75.9628 322.761 75.4289 322.346 74.9729C321.964 74.5613 321.527 74.2038 321.048 73.9101C320.598 73.6402 320.11 73.4405 319.6 73.3175C319.209 73.225 318.832 73.0794 318.481 72.8849C318.226 72.7462 318.004 72.5537 317.832 72.3206C317.725 72.1686 317.636 72.0044 317.568 71.8315C317.53 71.716 317.508 71.5957 317.502 71.4741C317.509 71.3649 317.531 71.2572 317.568 71.1543C317.631 71.0083 317.71 70.8695 317.803 70.7405C317.944 70.5513 318.142 70.4127 318.368 70.3455C318.669 70.2359 318.988 70.1879 319.308 70.2044C320.303 70.2259 321.292 70.3488 322.261 70.5712C322.304 70.5848 322.348 70.5867 322.392 70.5767C322.435 70.5668 322.474 70.5454 322.506 70.5148C322.576 70.4617 322.623 70.3845 322.638 70.2984L322.939 67.1571C322.938 67.0758 322.912 66.9968 322.863 66.9313C322.814 66.8701 322.744 66.8298 322.666 66.8185C321.498 66.6873 320.324 66.6182 319.148 66.6116C317.559 66.5201 315.982 66.935 314.643 67.7966C314.105 68.1882 313.673 68.7083 313.387 69.3096C313.101 69.9109 312.97 70.5742 313.007 71.239C313.003 71.9352 313.124 72.6264 313.364 73.2799C313.573 73.8592 313.893 74.3926 314.305 74.8506C314.687 75.253 315.12 75.6039 315.593 75.8946C316.041 76.1706 316.53 76.3737 317.042 76.4965C317.436 76.579 317.814 76.7251 318.161 76.9292C318.42 77.062 318.642 77.2556 318.81 77.4935C318.912 77.6422 318.994 77.8034 319.054 77.9732C319.096 78.0877 319.119 78.2086 319.12 78.3306C319.118 78.4434 319.096 78.5549 319.054 78.6597C319.001 78.8115 318.925 78.9543 318.829 79.083C318.685 79.2626 318.492 79.3966 318.274 79.4686C317.973 79.5773 317.652 79.6222 317.333 79.6003C316.383 79.5796 315.438 79.463 314.512 79.2523C314.469 79.2385 314.423 79.2356 314.379 79.2438C314.334 79.252 314.293 79.2711 314.258 79.2993C314.221 79.3251 314.19 79.3586 314.167 79.3976C314.144 79.4366 314.13 79.4801 314.126 79.525L313.825 82.6664C313.826 82.7477 313.852 82.8267 313.9 82.8921C313.949 82.9534 314.02 82.9937 314.098 83.005C315.231 83.1408 316.371 83.2068 317.512 83.2025C319.675 83.2025 321.243 82.8231 322.214 82.0645C322.716 81.6395 323.11 81.1017 323.363 80.4951C323.617 79.8886 323.722 79.2306 323.672 78.5751C323.669 77.8801 323.538 77.1915 323.287 76.5436Z" fill="#DDDDDD"/>
<path d="M496.551 1H99.1868V17.337H496.551V1Z" stroke="#DDDDDD" stroke-width="2" stroke-linecap="round" stroke-linejoin="round"/>
<path d="M340.254 56.1997H263.507V93.6046H340.254V56.1997Z" stroke="#DDDDDD" stroke-width="2" stroke-linecap="round" stroke-linejoin="round"/>
<path d="M454.622 393.079V422.132H501.648C501.648 422.132 504.47 419.432 495.911 415.266C487.832 411.334 482.96 407.497 478.906 398.27L454.622 393.079Z" fill="#683F1D"/>
<path d="M453.672 401.007H483.346L484.879 171.744L456.051 173.926L453.672 401.007Z" fill="#CD5A32"/>
<path d="M460.97 202.81C464.949 202.17 466.463 200.731 466.463 200.731" stroke="#F18661" stroke-width="0.75" stroke-linecap="round" stroke-linejoin="round"/>
<path d="M476.264 180.058C476.028 187.517 478.653 196.593 481.907 198.982" stroke="#F18661" stroke-width="0.75" stroke-linecap="round" stroke-linejoin="round"/>
<path d="M429.933 405.202V425.649H476.959C476.959 425.649 479.781 422.95 471.213 418.783C463.143 414.852 458.271 411.014 454.217 401.788L429.933 405.202Z" fill="#683F1D"/>
<path d="M476.959 425.668C476.959 425.668 479.781 422.969 471.213 418.802C463.143 414.871 458.271 411.033 454.217 401.807" stroke="#7F542D" stroke-width="0.75" stroke-linecap="round" stroke-linejoin="round"/>
<path d="M414.885 147.139C410.774 202.8 412.909 240.252 416.577 287.758C420.246 335.264 426.171 405.202 426.171 405.202H457.208L459.484 167.248L414.885 147.139Z" fill="#CD5A32"/>
<path d="M457.18 405.221L459.042 205.528" stroke="#F18661" stroke-width="0.75" stroke-linecap="round" stroke-linejoin="round"/>
<path d="M572 119.864C572 128.856 568.633 136.86 563.385 142.051C560.081 145.439 555.702 147.574 550.998 148.089C550.678 148.089 550.358 148.136 550.057 148.146H549.296C539.759 148.146 531.585 140.847 528.209 130.502C527.088 127.058 526.523 123.457 526.535 119.836C526.535 111.127 529.695 103.348 534.661 98.1567C536.522 96.1192 538.781 94.484 541.298 93.3518C543.814 92.2195 546.536 91.6142 549.296 91.573C561.814 91.5636 572 104.233 572 119.864Z" fill="#4C63A0"/>
<path d="M563.375 142.061C560.071 145.449 555.693 147.583 550.989 148.099C550.669 148.099 550.349 148.146 550.048 148.155H549.286C539.749 148.155 531.576 140.857 528.2 130.511C538.734 136.671 542.834 149.237 561.316 142.813C561.946 142.606 562.651 142.352 563.375 142.061Z" fill="#273967"/>
<path d="M561.269 142.794C559.996 144.317 558.431 145.568 556.664 146.473C554.898 147.378 552.968 147.918 550.989 148.061C550.669 148.061 550.349 148.108 550.048 148.118H549.286C546.483 148.118 543.695 147.694 541.019 146.857C524.325 141.91 505.58 129.749 493.457 122.159L493.287 122.056C490.466 120.268 487.973 118.754 485.979 117.654C485.65 117.456 485.33 117.287 485.039 117.127C480.571 114.757 476.96 109.452 474.75 103.264C474.326 102.069 473.95 100.837 473.63 99.5863C469.727 84.171 474.477 66.0282 495.507 73.2514C499.457 74.5964 504.677 77.3804 510.499 81.0108C518.836 86.3046 526.898 92.021 534.652 98.1378C548.374 108.85 560.46 119.902 563.112 124.661C564.567 127.544 565.166 130.784 564.839 133.997C564.513 137.21 563.274 140.262 561.269 142.794Z" fill="#4C63A0"/>
<path d="M563.375 142.061C560.071 145.448 555.693 147.583 550.989 148.099C550.669 148.099 550.349 148.146 550.048 148.155H549.286C546.483 148.156 543.695 147.731 541.019 146.895C524.325 141.948 505.58 129.787 493.456 122.197C493.456 122.197 493.4 122.14 493.287 122.093C490.465 120.306 487.973 118.792 485.979 117.691C485.65 117.494 485.33 117.325 485.039 117.165C480.571 114.795 476.959 109.49 474.749 103.301C474.326 102.107 473.95 100.875 473.63 99.6239C480.515 98.5141 488.519 99.1724 497.416 103.019C500.821 104.496 507.179 107.195 503.595 112.001C499.09 118.058 502.833 127.37 516.358 127.37C520.523 127.303 524.624 128.391 528.209 130.511C538.743 136.671 542.844 149.237 561.325 142.813C561.946 142.606 562.651 142.352 563.375 142.061Z" fill="#273967"/>
<path d="M510.452 81.0578C507.167 80.8095 503.864 81.0312 500.642 81.7162C494.999 82.9012 488.284 85.8263 484.126 92.8238C481.679 96.8826 478.488 100.444 474.721 103.32C469.031 87.3311 472.746 65.5014 495.479 73.2984C499.41 74.6434 504.63 77.4273 510.452 81.0578Z" fill="#4C63A0"/>
<path d="M503.539 71.1167C501.771 70.684 504.244 64.3919 508.975 58.4666C513.424 52.8986 516.236 49.8513 517.59 51.7136C518.418 52.861 517.186 70.6464 503.539 71.1167Z" fill="#273967"/>
<path d="M511.016 71.6619C505.373 63.7897 501.611 57.2907 498.958 55.1651C496.306 53.0395 493.861 51.9673 493.579 49.5219C493.499 47.7261 493.918 45.9434 494.79 44.3713C495.661 42.7992 496.951 41.4991 498.516 40.6151C502.42 38.3484 519.763 59.595 519.763 59.595C519.763 59.595 520.327 70.1665 511.016 71.6619Z" fill="#B25E47"/>
<path d="M483.242 28.7928C486.609 25.454 490.183 25.9713 497.708 33.0064C505.232 40.0416 513.64 43.6626 515.399 49.3152C517.28 55.438 512.192 60.2912 505.373 59.4729C502.965 59.1908 499.213 58.7675 502.965 50.1711L492.864 41.7063C492.864 41.7063 490.042 45.9293 485.725 44.7442C481.23 43.4651 475.389 36.6086 483.242 28.7928Z" fill="#DDDDDD" stroke="#DDDDDD" stroke-linecap="round" stroke-linejoin="round"/>
<path d="M504.658 42.816C506.285 43.653 510.79 37.1728 508.646 35.8937C505.758 34.1913 503.022 41.9695 504.658 42.816Z" fill="#B25E47" stroke="#914839" stroke-width="0.75" stroke-linecap="round" stroke-linejoin="round"/>
<path d="M502.965 50.1711C504.117 48.1651 505.929 46.6198 508.091 45.7976" stroke="#DDDDDD" stroke-linecap="round" stroke-linejoin="round"/>
<path d="M492.864 41.6687C493.475 40.7929 493.899 39.8005 494.109 38.7535C494.32 37.7065 494.312 36.6274 494.087 35.5835" stroke="#DDDDDD" stroke-linecap="round" stroke-linejoin="round"/>
<path d="M492.948 50.6224C494.284 53.6509 498.121 49.2492 499.701 44.9792C501.216 40.9443 500.849 40.032 498.545 40.4553C496.24 40.8785 491.124 46.6063 492.948 50.6224Z" fill="#B25E47" stroke="#914839" stroke-width="0.75" stroke-linecap="round" stroke-linejoin="round"/>
<path d="M496.278 37.2856C498.103 38.2261 503.182 31.0405 500.764 29.6391C497.52 27.758 494.435 36.3545 496.278 37.2856Z" fill="#B25E47" stroke="#914839" stroke-width="0.75" stroke-linecap="round" stroke-linejoin="round"/>
<path d="M499.165 38.8095C500.99 39.75 506.069 32.5644 503.652 31.163C500.407 29.2819 497.322 37.8784 499.165 38.8095Z" fill="#B25E47" stroke="#914839" stroke-width="0.75" stroke-linecap="round" stroke-linejoin="round"/>
<path d="M501.977 40.9444C503.736 41.8849 508.561 34.9626 506.276 33.6271C503.163 31.8119 500.219 40.0603 501.977 40.9444Z" fill="#B25E47" stroke="#914839" stroke-width="0.75" stroke-linecap="round" stroke-linejoin="round"/>
<path d="M503.539 71.1165C510.725 81.2272 530.476 110.619 537.944 120.475C547.631 133.285 570.815 135.364 570.862 110.863C570.862 98.7304 517.628 51.7134 517.628 51.7134C517.628 51.7134 514.882 66.0941 503.539 71.1165Z" fill="#4C63A0"/>
<path d="M510.377 74.1357C519.208 71.1636 522.237 61.1846 522.237 61.1846" stroke="#273967" stroke-width="0.75" stroke-linecap="round" stroke-linejoin="round"/>
<path d="M514.477 56.0398C527.645 74.2484 532.347 86.6917 529.215 91.5636C526.083 96.4355 519.02 93.8021 519.81 89.6825C520.751 84.5755 529.281 83.2775 525.764 96.9905C522.246 110.703 512.596 111.898 510.847 108.098C508.486 102.831 518.305 97.2256 519.312 111.042C520.318 124.858 504.874 128.395 500.567 124.924C496.259 121.454 508.411 112.396 508.223 127.586C508.035 142.775 490.08 143.246 481.982 141.214" stroke="#DDDDDD" stroke-width="2" stroke-linecap="round" stroke-linejoin="round"/>
<path d="M503.539 71.1167C510.725 81.2274 530.476 110.619 537.944 120.476C540.167 123.376 543.015 125.739 546.277 127.389" stroke="#273967" stroke-width="0.75" stroke-linecap="round" stroke-linejoin="round"/>
<path d="M395.66 154.259C395.701 157.835 394.902 161.37 393.327 164.58C391.753 167.79 389.446 170.585 386.593 172.741C383.271 175.179 379.259 176.497 375.138 176.503H375.081C372.492 176.493 369.932 175.956 367.557 174.923C359.976 171.668 354.615 163.636 354.615 154.231C354.615 154.043 354.615 153.864 354.615 153.695C354.66 150.55 355.351 147.447 356.645 144.58C357.94 141.713 359.81 139.142 362.14 137.029C364.557 134.87 367.461 133.331 370.604 132.542C372.105 132.161 373.646 131.968 375.194 131.969C383.33 131.969 390.365 137.113 393.676 144.562C394.413 146.198 394.953 147.916 395.284 149.679C395.56 151.19 395.686 152.724 395.66 154.259Z" fill="#4C63A0"/>
<path d="M375.081 176.522C372.492 176.512 369.932 175.974 367.557 174.942C359.976 171.687 354.615 163.655 354.615 154.25C354.615 154.062 354.615 153.883 354.615 153.714C354.66 150.568 355.351 147.466 356.645 144.599C357.94 141.731 359.81 139.161 362.14 137.048C360.466 158.727 362.817 169.91 375.081 176.522Z" fill="#273967"/>
<path d="M436.705 89.504C436.141 91.3004 435.482 93.1344 434.749 94.9967C434.072 96.7084 433.322 98.439 432.501 100.188C432.237 100.734 431.965 101.289 431.692 101.834C430.836 103.565 429.924 105.305 428.927 107.045C428.598 107.628 428.259 108.211 427.92 108.794C422.068 118.433 415.434 127.574 408.085 136.126C406.392 138.101 404.661 140.048 402.902 141.948L401.661 143.274C400.344 144.666 399.018 146.02 397.682 147.337C396.864 148.137 396.055 148.936 395.237 149.698C385.258 159.103 374.969 165.913 366.617 166.101C365.837 166.124 365.057 166.08 364.284 165.969C361.998 165.723 359.856 164.732 358.19 163.147C355.961 160.975 354.775 157.702 354.644 153.742C354.409 146.293 357.86 136.361 364.99 126.467L366.212 124.746C373.219 114.701 383.565 97.6584 395.04 83.8044C405.573 71.079 417.067 61.0342 427.845 61.5232C428.709 61.5628 429.567 61.6729 430.413 61.8524C439.771 63.7899 441.154 75.2644 436.705 89.504Z" fill="#4C63A0"/>
<path d="M366.184 153.451C364.665 155.234 363.867 157.521 363.945 159.862C364.023 162.204 364.973 164.432 366.607 166.11C365.827 166.133 365.047 166.089 364.275 165.979C361.988 165.733 359.847 164.741 358.18 163.157C355.951 160.984 354.766 157.711 354.634 153.752C354.399 146.303 357.851 136.371 364.98 126.476L366.203 124.755C368.379 126.899 369.883 129.632 370.529 132.618C371.091 135.001 371.294 137.455 371.131 139.898C370.858 144.948 369.109 150.018 366.184 153.451Z" fill="#273967"/>
<path d="M434.748 94.9966C432.83 99.7641 430.547 104.377 427.92 108.794C422.068 118.433 415.434 127.574 408.085 136.126C404.746 140.029 401.247 143.829 397.682 147.346" stroke="#273967" stroke-width="0.75" stroke-linecap="round" stroke-linejoin="round"/>
<path d="M436.705 89.5038C431.682 83.3433 426.114 80.0044 416.954 79.9574C411.311 79.9574 404.238 81.1707 395.086 83.7665C405.62 71.0412 417.114 60.9963 427.892 61.4854C428.756 61.525 429.614 61.635 430.46 61.8146C439.771 63.7897 441.154 75.2641 436.705 89.5038Z" fill="#4C63A0"/>
<path d="M500.642 81.7164C500.247 90.4351 496.523 106.988 493.917 119.629C493.748 120.476 493.579 121.331 493.409 122.216C490.165 138.882 486.91 163.825 486.891 167.596C486.891 180.19 478.173 177.942 453.794 177.227C441.803 176.898 428.541 176.456 418.647 174.471C415.855 173.964 413.121 173.183 410.483 172.139C405.78 170.164 403.015 167.38 403.495 163.392C403.557 162.895 403.661 162.404 403.805 161.925C406.171 153.508 407.607 144.856 408.085 136.126C408.433 131.423 408.621 126.589 408.846 121.642C409.025 117.447 409.232 113.177 409.58 108.653C410.267 99.6805 413.342 88.902 416.916 79.9576C420.979 69.6118 425.597 61.6737 427.723 61.495H427.854C431.908 61.194 442.179 62.5672 457.218 62.8682C463.585 63.0054 469.89 64.1546 475.897 66.2729C478.53 67.2134 489.13 70.2889 495.45 73.308C497.124 73.9705 498.645 74.9692 499.918 76.2425C500.567 77.089 500.764 79.0265 500.642 81.7164Z" fill="#4C63A0"/>
<path d="M418.647 174.471C415.855 173.964 413.121 173.183 410.483 172.139C405.78 170.164 403.015 167.38 403.495 163.392C403.557 162.895 403.661 162.404 403.805 161.925C406.171 153.508 407.607 144.856 408.085 136.126C408.433 131.423 408.621 126.589 408.846 121.642L429.67 101.834C435.379 111.39 424.412 129.871 417.095 134.621C409.777 139.371 410.285 148.729 425.701 152.011C437.391 154.485 425.23 168.066 418.647 174.471Z" fill="#273967"/>
<path d="M510.452 81.0579C507.167 80.8096 503.864 81.0312 500.642 81.7162C494.999 82.9013 488.283 85.8264 484.126 92.8239C481.679 96.8827 478.488 100.444 474.721 103.32C464.902 110.844 451.64 113.092 443.185 99.0408C441.258 95.7159 439.102 92.5292 436.733 89.5038C431.711 83.3434 426.143 80.0045 416.982 79.9575C411.339 79.9575 404.266 81.1707 395.115 83.7666C405.648 71.0412 417.142 60.9964 427.92 61.4855C431.974 61.1845 442.244 62.5577 457.284 62.8586C463.651 62.9959 469.956 64.1451 475.962 66.2634C478.596 67.2039 489.196 70.2794 495.516 73.2985C499.41 74.6435 504.63 77.4274 510.452 81.0579Z" fill="#4C63A0"/>
<path d="M469.435 78.142C469.435 78.142 472.257 87.2181 473.348 88.027L478.05 88.7606C479.595 86.0063 480.892 83.1201 481.925 80.1359L476.959 72.9785L469.435 78.142Z" fill="#683F1D"/>
<path d="M473.385 88.0271L462.541 129.41C462.541 129.41 463.792 134.941 469.99 143.349C469.99 143.349 476.263 135.166 477.59 131.621L478.107 88.7607L473.385 88.0271Z" fill="#683F1D"/>
<path d="M461.572 59.5762C458.995 59.6514 453.71 62.0121 453.644 64.1659C453.578 66.3198 458.44 83.3622 466.162 87.604C466.162 87.604 469.153 78.6971 476.941 77.4462L461.572 59.5762Z" fill="white"/>
<path d="M476.959 77.4462C479.988 81.1688 482.503 85.2811 484.437 89.6731C484.437 89.6731 492.064 79.694 491.02 71.6431C490.842 70.2982 484.145 67.0815 484.145 67.0815L476.959 77.4462Z" fill="white"/>
<path d="M493.409 122.216C493.579 121.331 493.748 120.476 493.917 119.629C494.98 114.484 496.231 108.681 497.36 103.038C497.444 102.624 497.519 102.229 497.595 101.834" stroke="#273967" stroke-width="0.75" stroke-linecap="round" stroke-linejoin="round"/>
<path d="M486.13 69.0379C486.13 69.0379 483.035 78.161 476.724 78.1422C466.454 78.1422 460.039 61.6359 460.039 61.6359C463.199 48.8353 462.861 42.8911 462.861 42.8911C462.513 34.4264 481.954 23.2435 484.634 48.3838L484.869 51.7133L485.697 63.3759L486.13 69.0379Z" fill="#B25E47"/>
<path d="M485.725 63.3759C479.142 63.1502 473.075 59.7079 472.755 51.7134H484.898L485.725 63.3759Z" fill="#914839"/>
<path d="M484.098 18.3904C483.769 20.6665 480.844 22.1525 480.844 22.1525L474.138 32.2256C474.138 32.2256 468.015 39.2231 461.497 38.5083C460.536 38.4046 459.6 38.1341 458.732 37.7089C455.515 36.1476 457.387 33.1191 456.729 32.1315C456.07 31.144 454.49 31.0123 454.095 29.1877C453.7 27.363 456.635 27.4947 455.384 25.529C454.133 23.5633 453.418 21.955 455.478 20.5348C457.537 19.1146 455.553 18.5503 456.87 16.2742C457.885 14.506 459.578 16.6504 460.199 14.3273C460.82 12.0042 462.71 12.8319 464.065 12.6155C465.776 12.3334 464.319 10.8568 466.661 10.2924C467.799 10.0103 467.77 11.3552 469.106 10.4617C469.676 10.0254 470.355 9.75493 471.068 9.68024C471.782 9.60555 472.503 9.72953 473.15 10.0385C474.871 11.1765 474.796 8.89105 476.912 9.58704C478.436 10.0949 477.467 11.2518 479.565 11.581C481.662 11.9101 481.596 13.1422 481.775 14.4496C481.793 14.6328 481.821 14.8149 481.86 14.9951C482.17 16.4811 484.418 16.1143 484.098 18.3904Z" fill="#683F1D"/>
<path d="M485.547 17.2899C485.208 19.7353 482.132 21.353 482.132 21.353L475.079 32.0938C475.079 32.0938 468.673 39.6181 461.836 38.828C461.965 38.2617 461.926 37.67 461.723 37.1257C461.027 36.0723 459.381 35.9312 458.967 33.9749C458.553 32.0186 461.629 32.1503 460.322 30.0529C459.014 27.9555 458.262 26.2344 460.406 24.7013C462.551 23.1682 460.491 22.5945 461.873 20.1585C462.936 18.2775 464.695 20.5536 465.372 18.0706C466.049 15.5876 467.996 16.4717 469.417 16.2459C471.213 15.945 469.68 14.3649 472.144 13.7535C473.339 13.4526 473.301 14.8916 474.702 13.9416C476.104 12.9917 477.891 12.766 478.944 13.4808C480.75 14.7035 480.665 12.2487 482.923 13.0011L483.12 13.0763C483.12 13.2739 483.176 13.462 483.214 13.6595C483.543 15.249 485.885 14.8822 485.547 17.2899Z" fill="#683F1D"/>
<path d="M490.061 50.7823C488.246 55.9082 477.289 61.7113 463.98 44.9981C462.268 45.6376 459.409 45.158 457.838 42.1765C455.873 38.4144 458.685 32.8653 465.231 35.527C466.435 36.016 467.112 32.9875 465.645 30.8807C464.178 28.774 461.695 23.6387 467.526 19.8954C473.357 16.1521 481.126 16.5471 484.098 21.2121C485.972 24.3152 487.463 27.6345 488.537 31.0971C489.036 32.6489 489.478 34.2478 489.845 35.8655C491.067 41.283 491.443 46.8603 490.061 50.7823Z" fill="#B25E47"/>
<path d="M477.655 37.1256C477.345 38.3765 474.909 38.8468 472.2 38.179C469.492 37.5113 467.554 35.9688 467.855 34.7179C468.156 33.467 470.601 33.0061 473.31 33.6739C476.019 34.3417 477.956 35.8841 477.655 37.1256Z" fill="#914839"/>
<path d="M489.873 35.8373C488.575 36.5521 487.381 36.7214 486.788 36.1195C485.913 35.2542 486.694 33.0063 488.566 31.0688C489.064 32.6207 489.506 34.2196 489.873 35.8373Z" fill="#914839"/>
<path d="M470.131 28.5009C470.338 29.5826 477.373 27.4946 476.715 25.2655C475.765 22.237 469.746 26.5635 470.131 28.5009Z" fill="#683F1D"/>
<path d="M480.374 25.2279C480.524 26.6199 486.148 26.6387 486.13 25.7358C486.111 24.8329 480.035 22.0772 480.374 25.2279Z" fill="#683F1D"/>
<path d="M475.464 31.7368C475.464 31.9879 475.538 32.2334 475.678 32.4422C475.818 32.651 476.016 32.8137 476.248 32.9098C476.48 33.0059 476.735 33.0311 476.981 32.9821C477.228 32.9331 477.454 32.8122 477.632 32.6346C477.809 32.457 477.93 32.2308 477.979 31.9845C478.028 31.7382 478.003 31.4829 477.907 31.2509C477.811 31.0188 477.648 30.8205 477.439 30.681C477.23 30.5415 476.985 30.467 476.734 30.467C476.567 30.467 476.402 30.4999 476.248 30.5637C476.094 30.6275 475.954 30.721 475.836 30.8389C475.718 30.9568 475.624 31.0968 475.561 31.2509C475.497 31.4049 475.464 31.57 475.464 31.7368Z" fill="#683F1D"/>
<path d="M482.791 30.467C482.789 30.7204 482.862 30.9686 483.002 31.1802C483.141 31.3918 483.34 31.5572 483.574 31.6554C483.807 31.7537 484.065 31.7804 484.314 31.7321C484.562 31.6838 484.791 31.5627 484.971 31.3842C485.151 31.2057 485.273 30.9778 485.324 30.7294C485.374 30.4811 485.349 30.2234 485.252 29.9891C485.156 29.7548 484.992 29.5545 484.781 29.4135C484.571 29.2726 484.323 29.1973 484.07 29.1973C483.902 29.1961 483.736 29.228 483.581 29.2912C483.426 29.3545 483.285 29.4478 483.166 29.5659C483.047 29.6839 482.953 29.8243 482.888 29.9789C482.824 30.1336 482.791 30.2995 482.791 30.467Z" fill="#683F1D"/>
<path d="M460.03 39.336C460.97 36.9 464.601 37.3515 465.73 40.0508" stroke="#914839" stroke-width="0.75" stroke-linecap="round" stroke-linejoin="round"/>
<path d="M465.005 38.8751C463.284 37.8311 460.35 41.7625 465.005 42.8817" stroke="#914839" stroke-width="0.75" stroke-linecap="round" stroke-linejoin="round"/>
<path d="M463.98 44.9791C465.111 44.6678 466.173 44.1478 467.112 43.446" stroke="#914839" stroke-width="0.75" stroke-linecap="round" stroke-linejoin="round"/>
<path d="M480.016 28.2942C480.016 32.9968 482.17 33.5235 484.333 34.37C486.139 35.0848 485.565 37.0787 485.142 37.7277" stroke="#914839" stroke-width="0.75" stroke-linecap="round" stroke-linejoin="round"/>
<path d="M477.655 40.7941C481.342 40.7941 484.126 40.5872 484.126 40.5872C484.126 40.5872 482.49 45.2334 480.364 44.9982C478.239 44.7631 477.655 40.7941 477.655 40.7941Z" fill="white" stroke="#914839" stroke-width="0.75" stroke-linecap="round" stroke-linejoin="round"/>
<path d="M476.823 161.401L432.272 133.519L391.801 198.185L436.352 226.067L476.823 161.401Z" fill="#DDDDDD"/>
<path d="M469.977 164.362L432.601 140.97L398.647 195.224L436.023 218.615L469.977 164.362Z" fill="#F9F9F9"/>
<path d="M461.14 148.644C461.586 148.274 461.967 147.832 462.268 147.337C462.65 146.735 462.907 146.064 463.026 145.361C463.145 144.658 463.123 143.939 462.96 143.246C462.798 142.552 462.499 141.897 462.081 141.32C461.663 140.744 461.134 140.256 460.525 139.886C459.916 139.516 459.239 139.271 458.535 139.165C457.83 139.06 457.112 139.095 456.421 139.271C455.73 139.446 455.082 139.757 454.513 140.186C453.944 140.615 453.466 141.153 453.108 141.769C452.812 142.262 452.596 142.799 452.468 143.359L445.706 139.239L440.533 147.704L462.739 161.229L467.902 152.764L461.14 148.644Z" fill="#DDDDDD" stroke="#DDDDDD" stroke-linecap="round" stroke-linejoin="round"/>
<path d="M458.303 147.079C459.691 146.739 460.54 145.339 460.201 143.952C459.861 142.564 458.461 141.714 457.073 142.054C455.686 142.393 454.836 143.794 455.176 145.181C455.515 146.569 456.915 147.418 458.303 147.079Z" fill="#F9F9F9"/>
<path d="M434.749 151.297L460.228 167.239" stroke="#DDDDDD" stroke-linecap="round" stroke-linejoin="round"/>
<path d="M432.209 155.792L457.688 171.744" stroke="#DDDDDD" stroke-linecap="round" stroke-linejoin="round"/>
<path d="M429.67 160.298L449.524 172.722" stroke="#DDDDDD" stroke-linecap="round" stroke-linejoin="round"/>
<path d="M435.426 180.058C447.342 185.983 451.255 188.034 452.064 188.749C454.5 190.912 454.218 194.918 454.218 194.918C454.218 194.918 459.456 197.59 459.983 199.104C460.51 200.618 457.792 203.487 456.052 203.336C456.052 203.336 453.964 205.678 452.064 205.528C452.064 205.528 451.368 208.622 448.8 208.772C448.8 208.772 448.499 211.425 444.793 210.654C441.088 209.882 425.353 197.129 425.353 197.129L435.426 180.058Z" fill="#B25E47"/>
<path d="M436.752 180.717C435.689 182.974 429.754 193.959 427.215 198.634C426.519 199.932 426.077 200.74 426.077 200.74C426.077 200.74 409.523 194.157 394.776 187.987C386.001 184.309 377.846 180.801 374.254 178.93C371.934 177.759 369.699 176.426 367.566 174.942C362.76 171.565 359.393 167.718 358.161 163.148C356.929 158.577 357.888 153.009 361.848 146.51C362.88 144.843 364.232 143.396 365.825 142.254C367.418 141.111 369.221 140.294 371.131 139.851C373.185 139.344 375.301 139.138 377.414 139.239L378.119 139.286C378.872 139.286 379.624 139.418 380.395 139.54L381.063 139.653L381.825 139.804L383.085 140.086H383.132L383.809 140.264L384.11 140.358C384.374 140.434 384.637 140.509 384.882 140.594L385.672 140.848L386.452 141.111C386.716 141.214 386.979 141.308 387.242 141.421C388.553 141.934 389.834 142.518 391.08 143.171C391.305 143.274 391.531 143.396 391.747 143.519C391.964 143.641 392.396 143.867 392.688 144.055L393.506 144.544H393.563C394.635 145.193 395.717 145.908 396.798 146.688C397.071 146.886 397.353 147.083 397.616 147.29C398.98 148.306 400.344 149.444 401.698 150.676C417.621 165.236 436.376 180.246 436.855 180.246C436.949 180.293 436.893 180.416 436.752 180.717Z" fill="#4C63A0"/>
<path d="M394.776 187.987C386.001 184.309 377.846 180.801 374.254 178.93C371.934 177.759 369.699 176.426 367.566 174.942C362.76 171.565 359.393 167.718 358.161 163.148C356.929 158.577 357.888 153.009 361.848 146.51C362.88 144.843 364.232 143.396 365.825 142.254C367.418 141.111 369.221 140.294 371.131 139.851C370.84 144.948 369.09 150.018 366.165 153.451C364.646 155.234 363.848 157.521 363.926 159.862C364.004 162.204 364.954 164.432 366.588 166.11C369.194 168.932 373.642 170.756 379.577 169.976C382.022 169.656 384.421 170.785 386.575 172.741C390.638 176.362 393.817 182.842 394.776 187.987Z" fill="#273967"/>
<path d="M376.718 139.22C384.242 139.324 393.224 142.982 401.764 150.732C417.753 165.348 436.564 180.415 436.921 180.303" stroke="#273967" stroke-width="0.75" stroke-linecap="round" stroke-linejoin="round"/>
<path d="M428.833 180.575C426.397 185.353 421.873 193.903 421.873 193.903" stroke="#273967" stroke-width="0.75" stroke-linecap="round" stroke-linejoin="round"/>
<path d="M452.064 188.749C454.5 190.912 454.217 194.919 454.217 194.919C454.217 194.919 459.456 197.59 459.983 199.104C460.51 200.618 457.791 203.487 456.052 203.336C456.052 203.336 453.964 205.678 452.064 205.528C452.064 205.528 451.368 208.622 448.8 208.773C448.8 208.773 448.499 211.425 444.793 210.654" stroke="#914839" stroke-width="0.75" stroke-linecap="round" stroke-linejoin="round"/>
<path d="M454.49 195.06L449.628 192.746" stroke="#914839" stroke-width="0.75" stroke-linecap="round" stroke-linejoin="round"/>
<path d="M456.052 203.336C454.447 202.677 452.877 201.937 451.349 201.116" stroke="#914839" stroke-width="0.75" stroke-linecap="round" stroke-linejoin="round"/>
<path d="M452.064 205.528C451.068 205.126 450.121 204.612 449.242 203.995" stroke="#914839" stroke-width="0.75" stroke-linecap="round" stroke-linejoin="round"/>
<path d="M152.035 146.002C149.975 149.472 147.736 152.962 145.366 156.347C139.272 165.094 132.406 173.277 125.991 179.118C104.228 198.953 96.9667 178.44 99.017 170.051C100.644 163.345 118.392 138.496 128.606 124.708C131.164 121.256 133.243 118.51 134.484 116.892C140.711 108.86 148.423 104.665 158.807 107.826C168.212 110.685 162.644 128.122 152.035 146.002Z" fill="#CD5A32"/>
<path d="M152.035 146.002C150.34 144.507 148.782 142.864 147.379 141.092C141.915 134.283 138.463 126.777 128.568 124.717C131.127 121.266 133.205 118.519 134.447 116.902C140.673 108.869 148.385 104.675 158.769 107.835C168.212 110.685 162.644 128.122 152.035 146.002Z" fill="#CD5A32"/>
<path d="M111.376 254.416C105.046 276.284 89.5555 319.595 89.7436 320.441C89.8001 320.827 90.1292 325.511 90.4772 330.703C90.9381 337.493 91.4178 345.159 91.4178 345.159C91.4178 345.159 48.3885 358.787 44.7017 357.799C41.0148 356.812 41.7202 351.545 47.401 347.284C48.5955 346.344 50.3354 344.914 52.3388 343.165C59.7878 336.637 70.8296 326.132 70.8296 326.132C70.8296 326.132 80.6957 242.537 82.3228 234.816C83.95 227.094 90.7124 218.911 100.795 219.767C111.225 220.651 117.677 232.549 111.376 254.416Z" fill="#FEBD9D"/>
<path d="M91.4083 345.158C91.4083 345.158 48.379 358.787 44.6921 357.799C41.0053 356.811 41.7107 351.545 47.3915 347.284C48.5859 346.343 50.3259 344.914 52.3293 343.164C60.2015 344.792 68.6286 342.149 73.0209 338.866C78.1372 334.889 84.0744 332.101 90.4019 330.702C90.9004 337.484 91.4083 345.158 91.4083 345.158Z" fill="#4C63A0"/>
<path d="M256.706 142.399C256.913 140.81 256.81 138.562 252.248 136.135L250.743 142.983C250.743 142.983 256.349 145.174 256.706 142.399Z" fill="#CD5A32"/>
<path d="M235.337 135.336C236.795 128.386 237.435 127.746 237.218 124.369C237.002 120.993 236.579 116.958 242.156 110.196C247.734 103.433 251.025 98.1193 252.126 98.6648C253.226 99.2103 252.493 104.082 250.386 108.785C250.386 108.785 265.199 100.32 268.312 99.1256C271.426 97.9312 269.413 103.603 263.186 106.65C263.186 106.65 272.977 100.743 275.357 101.232C277.736 101.721 273.344 105.164 269.958 107.374C269.958 107.374 276.373 103.339 277.642 104.665C278.912 105.991 275.376 108.813 272.422 110.581C272.422 110.581 276.269 108.578 276.909 109.575C277.548 110.572 276.909 111.682 273.147 114.061C269.385 116.441 261.164 120.466 254.863 127.69L253.217 145.56C253.217 145.56 238.441 147.958 235.337 135.336Z" fill="#FEBD9D"/>
<path d="M244.479 107.346C248.684 102.004 251.223 98.2039 252.163 98.6648C253.264 99.2197 252.53 104.082 250.424 108.785C250.424 108.785 265.237 100.32 268.35 99.1256C271.463 97.9312 269.45 103.603 263.224 106.65C263.224 106.65 273.015 100.743 275.395 101.232C277.774 101.721 273.382 105.164 269.996 107.374C269.996 107.374 276.41 103.339 277.68 104.665C278.95 105.992 275.413 108.813 272.46 110.581C272.46 110.581 276.307 108.578 276.946 109.575C277.586 110.572 276.946 111.682 273.184 114.061" stroke="#F4A789" stroke-width="0.75" stroke-linecap="round" stroke-linejoin="round"/>
<path d="M251.524 120.617C252.163 115.585 255.521 113.92 258.352 113.187" stroke="#F4A789" stroke-width="0.75" stroke-linecap="round" stroke-linejoin="round"/>
<path d="M258.07 108.23C262.114 108.409 266.356 112.143 266.629 113.516" stroke="#F4A789" stroke-width="0.75" stroke-linecap="round" stroke-linejoin="round"/>
<path d="M260.083 108.587C260.139 108.587 265.632 105.201 265.632 105.201" stroke="#F4A789" stroke-width="0.75" stroke-linecap="round" stroke-linejoin="round"/>
<path d="M271.012 106.659L264.108 110.675" stroke="#F4A789" stroke-width="0.75" stroke-linecap="round" stroke-linejoin="round"/>
<path d="M273.26 110.054L268.04 112.979" stroke="#F4A789" stroke-width="0.75" stroke-linecap="round" stroke-linejoin="round"/>
<path d="M223.129 202.565C230.136 209.628 243.529 205.34 248.27 186.576C253.01 167.813 256.735 142.371 256.735 142.371C248.937 140.657 241.661 137.111 235.507 132.025C228.66 150.62 214.034 193.386 223.129 202.565Z" fill="#CD5A32"/>
<path d="M235.479 132.035C230.955 144.384 222.969 167.399 220.797 184.159" stroke="#F18661" stroke-width="0.75" stroke-linecap="round" stroke-linejoin="round"/>
<path d="M85.8684 225.655C81.8806 245.312 74.9395 261.103 67.6598 278.231C60.3801 295.358 52.9123 316.792 52.9123 320.131V335.283C52.9123 335.283 4.32455 343.541 2.12371 343.541C-0.0771257 343.541 -1.6384 338.838 3.06424 335.481C4.2399 334.653 6.62885 332.847 9.5633 330.609C18.4795 323.837 32.3711 313.049 32.3711 313.049C32.3711 313.049 49.0091 243.741 52.8371 221.432C59.0822 185.419 91.2577 199.01 85.8684 225.655Z" fill="#FEBD9D"/>
<path d="M79.4164 248.914C81.0811 244.127 82.6048 239.217 83.9215 234.063C91.1918 235.549 99.9105 236.781 110.821 238.719" stroke="#F4A789" stroke-width="0.75" stroke-linecap="round" stroke-linejoin="round"/>
<path d="M52.9123 321.344V335.264C52.9123 335.264 4.32455 343.522 2.12371 343.522C-0.0771257 343.522 -1.6384 338.82 3.06424 335.462C4.2399 334.634 6.62885 332.828 9.5633 330.59C18.3855 332.612 28.7971 329.254 34.4215 326.724C40.2938 324.05 46.5217 322.238 52.9123 321.344Z" fill="#4C63A0"/>
<path d="M107.99 187.704C117.127 187.704 124.533 181.072 124.533 172.891C124.533 164.71 117.127 158.078 107.99 158.078C98.8526 158.078 91.4457 164.71 91.4457 172.891C91.4457 181.072 98.8526 187.704 107.99 187.704Z" fill="#CD5A32"/>
<path d="M213.131 115.434C212.526 115.814 211.898 116.157 211.25 116.459C201.008 121.378 195.534 119.958 194.509 115.114C193.484 110.271 182.762 113.92 182.132 105.361C181.501 96.8023 185.301 94.0089 184.586 89.6449C184.586 89.6449 185.085 88.5162 185.847 87.1807C187.455 84.3591 190.258 80.7381 192.346 84.4343C195.44 89.9082 197.359 89.3251 203.068 89.9647C208.777 90.6042 211.401 94.5638 209.652 97.4231C207.526 100.903 208.655 102.408 214.89 102.982C220.496 103.499 221.352 110.506 213.131 115.434Z" fill="#B25E47"/>
<path d="M213.131 115.434C212.526 115.814 211.898 116.157 211.25 116.459C201.008 121.378 195.534 119.958 194.509 115.114C193.484 110.271 182.762 113.92 182.132 105.361C181.501 96.8023 185.301 94.0089 184.586 89.6449C184.586 89.6449 185.085 88.5162 185.847 87.1807C193.371 89.4944 195.515 93.4446 194.782 96.8587C193.841 101.204 197.669 106.913 207.178 106.132C211.946 105.737 213.141 110.562 213.131 115.434Z" fill="#B25E47"/>
<path d="M207.808 237.139C204.122 242.253 199.161 246.313 193.418 248.914C193.418 248.914 193.418 247.503 193.089 245.152C191.988 236.104 187.304 213.174 167.563 201.653L166.18 201.399H166.058L156.239 199.574C156.239 199.574 153.681 189.36 151.837 181.356C149.994 173.352 145.498 166.204 145.329 157.758C145.329 157.288 145.329 156.817 145.329 156.357C145.394 150.864 146.551 145.616 147.341 141.092C147.694 139.227 147.933 137.343 148.056 135.449C148.32 129.636 143.739 123.128 143.297 119.074C142.855 115.02 143.297 106.48 153.953 107.383C155.693 107.524 157.283 107.665 158.769 107.806C160.255 107.948 161.835 108.126 163.18 108.296C163.66 108.352 164.12 108.427 164.591 108.502C166.475 108.756 168.339 109.146 170.168 109.669C171.635 110.089 173.048 110.676 174.382 111.418C178.511 113.722 187.963 110.779 189.12 110.412H189.233C191.283 110.28 193.098 110.13 194.716 109.989C196.334 109.847 197.678 109.735 198.901 109.612C202.494 109.236 204.61 108.926 205.711 108.794C206.36 108.794 207.291 117.626 208.288 129.486C208.833 135.938 209.388 143.283 209.934 150.591C211.043 165.781 212.087 180.829 212.699 187.272C212.793 188.316 212.887 189.153 212.953 189.708C213.931 196.583 219.677 220.397 207.808 237.139Z" fill="#CD5A32"/>
<path d="M208.335 129.476C205.359 131.305 202.555 133.399 199.955 135.731C189.458 144.929 181.925 155.614 166.096 152.566C160.909 151.688 156.061 149.412 152.072 145.983C150.377 144.488 148.819 142.845 147.417 141.073C147.77 139.208 148.008 137.324 148.131 135.43C148.395 129.617 143.814 123.109 143.372 119.055C142.93 115.002 143.372 106.462 154.029 107.364C155.769 107.506 157.358 107.647 158.844 107.788C160.33 107.929 161.91 108.107 163.255 108.277C165.618 108.546 167.955 109.006 170.243 109.65C171.71 110.07 173.124 110.657 174.457 111.399C178.586 113.704 188.038 110.76 189.195 110.393H189.308C193.333 110.12 196.503 109.838 198.976 109.594C202.569 109.217 204.686 108.907 205.786 108.775C206.407 108.785 207.338 117.616 208.335 129.476Z" fill="#CD5A32"/>
<path d="M183.994 177.462C185.26 186.792 187.11 196.034 189.534 205.132L166.18 201.37H166.058C166.058 201.37 165.4 186.322 160.97 172.553C158.66 165.283 157.704 157.651 158.148 150.036C158.572 143.678 159.621 137.378 161.28 131.226C163.042 123.79 164.156 116.215 164.609 108.587C165.682 108.738 166.669 108.907 167.6 109.104L168.24 109.246C168.93 109.396 169.579 109.565 170.187 109.753C171.653 110.174 173.067 110.761 174.4 111.503C178.529 113.807 187.982 110.863 189.139 110.496H189.251C190.53 110.402 191.725 110.327 192.825 110.233L193.484 110.177L194.735 110.073C192.966 115.5 185.649 138.026 183.26 149.905C183.006 151.221 182.799 152.406 182.668 153.413C181.981 158.83 182.696 168.076 183.994 177.462Z" fill="white"/>
<path d="M194.8 109.979C193.032 115.406 185.715 137.932 183.326 149.811C178.146 152.89 171.987 153.876 166.105 152.566C163.376 152.058 160.724 151.202 158.214 150.017C158.638 143.66 159.687 137.359 161.346 131.207C163.108 123.771 164.222 116.197 164.675 108.568C165.748 108.719 166.735 108.888 167.666 109.086L168.306 109.227C168.995 109.377 169.644 109.547 170.253 109.735C171.719 110.155 173.133 110.742 174.466 111.484C178.595 113.788 188.047 110.844 189.204 110.478H189.317C190.596 110.384 191.791 110.308 192.891 110.214L193.55 110.158L194.8 109.979Z" fill="#F9F9F9"/>
<path d="M193.935 137.255L199.39 149.698C197.829 152.359 188.198 169.825 183.994 177.462C182.696 168.057 181.981 158.83 182.686 153.319C183.994 143.105 192.788 116.008 194.753 109.979C196.334 109.857 197.716 109.725 198.939 109.603L200.613 133.229C199.39 134.038 193.935 137.255 193.935 137.255Z" fill="#CD5A32"/>
<path d="M161.299 131.169C159.296 139.267 155.327 154.965 160.97 172.552C156.247 165.673 152.886 157.954 151.066 149.81L157.179 136.135L154.057 132.034C154.057 132.034 157.452 122.629 163.18 108.324C163.66 108.38 164.12 108.455 164.591 108.531C164.15 116.158 163.048 123.732 161.299 131.169Z" fill="#CD5A32"/>
<path d="M192.12 108.935C194.405 108.258 196.305 108.935 196.258 109.876C196.145 112.387 191.763 127.548 189.872 128.319C189.524 128.461 187.351 121.482 184.887 120.635C182.423 119.789 177.871 120.946 177.974 120.889C178.078 120.833 187.201 107.355 192.12 108.935Z" fill="#683F1D"/>
<path d="M170.347 108.39C174.212 113.6 173.686 117.513 172.275 117.691C170.864 117.87 169.143 117.738 167.441 119.525C165.738 121.312 163.039 124.228 162.832 123.852C161.826 121.971 163.537 109.744 164.29 108.474C165.221 106.913 169.303 106.979 170.347 108.39Z" fill="#683F1D"/>
<path d="M173.328 126.636C172.858 136.577 170.554 140.386 169.162 146.519C167.77 152.651 169.002 161.003 171.25 170.624C173.498 180.246 173.375 185.428 173.328 186.482C173.281 187.535 171.062 193.573 175.924 195.887" stroke="#DDDDDD" stroke-linecap="round" stroke-linejoin="round"/>
<path d="M192.129 108.935C192.129 108.935 177.184 124.2 173.686 121.933C170.187 119.667 168.842 111.004 169.227 108.098C169.369 107.158 169.632 105.371 169.923 103.395C170.535 99.4264 171.297 94.5921 171.428 93.5481C171.833 85.0833 185.715 77.7942 189.684 87.1713C189.11 94.5154 189.94 101.901 192.129 108.935Z" fill="#FEBD9D"/>
<path d="M169.924 103.358C170.535 99.3887 171.297 94.5544 171.428 93.5104L180.467 90.3596C181.417 98.0814 177.495 102.464 169.924 103.358Z" fill="#F4A789"/>
<path d="M145.366 156.357C145.432 150.864 146.589 145.616 147.379 141.092C147.732 139.227 147.971 137.343 148.094 135.449C148.216 132.627 147.229 129.702 146.109 126.937" stroke="#F18661" stroke-width="0.75" stroke-linecap="round" stroke-linejoin="round"/>
<path d="M192.59 205.81C186.834 204.436 167.563 201.662 167.563 201.662" stroke="#F18661" stroke-width="0.75" stroke-linecap="round" stroke-linejoin="round"/>
<path d="M73.5945 197.194C63.5214 197.194 48.4729 213.428 58.8564 222.843C70.6506 233.499 83.9779 233.96 110.821 238.728C110.821 238.728 124.524 197.223 73.5945 197.194Z" fill="#FEBD9D"/>
<path d="M193.089 245.124C181.172 247.945 155.778 245.651 140.56 243.958C136.591 243.506 133.309 243.111 131.155 242.857C129.481 242.66 128.465 242.547 128.333 242.566C98.7724 245.312 95.1044 238.85 82.633 222.88C70.1615 206.91 73.4252 198.173 73.5945 197.194C96.6751 195.313 136.234 197.044 156.276 199.574L167.563 201.624C172.472 204.491 176.799 208.256 180.316 212.723C189.543 224.338 192.28 238.474 193.089 245.124Z" fill="#4C63A0"/>
<path d="M111.376 238.07C120.95 240.891 131.127 242.857 131.127 242.857" stroke="#273967" stroke-width="0.75" stroke-linecap="round" stroke-linejoin="round"/>
<path d="M193.089 245.124C181.172 247.945 155.778 245.651 140.56 243.958C147.671 238.691 155.223 238.898 163.622 240.468C180.928 243.694 184.229 237.496 180.072 230.903C176.423 225.091 174.861 216.87 180.316 212.723C189.543 224.338 192.28 238.474 193.089 245.124Z" fill="#273967"/>
<path d="M235.243 204.484C224.756 209.873 217.543 198.248 212.783 187.281C211.843 185.071 210.959 182.908 210.197 180.895C206.943 172.43 201.732 152.519 199.992 135.75C198.563 122.103 199.503 110.497 205.748 108.785C213.188 106.744 221.446 110.036 226.299 123.89C227.261 126.713 228.021 129.602 228.575 132.533C233.042 155.473 246.153 198.869 235.243 204.484Z" fill="#CD5A32"/>
<path d="M212.746 187.281C211.805 185.071 210.921 182.908 210.159 180.895C207.629 174.311 203.886 160.768 201.554 147.177" stroke="#F18661" stroke-width="0.75" stroke-linecap="round" stroke-linejoin="round"/>
<path d="M226.308 123.89C219.952 124.261 213.782 126.179 208.335 129.476C205.359 131.305 202.555 133.399 199.955 135.731C198.563 122.103 199.503 110.497 205.748 108.785C213.197 106.744 221.455 110.036 226.308 123.89Z" fill="#CD5A32"/>
<path d="M193.644 79.0451C190.041 85.958 162.409 78.1046 162.409 78.1046C157.922 76.7972 155.674 75.029 155.825 72.3109C155.975 69.5928 160.198 69.4893 159.107 66.9029C158.556 65.6411 158.238 64.2901 158.167 62.915C158.092 60.432 159.023 57.5822 162.663 55.2779C169.058 51.2148 177.843 56.6699 177.843 56.6699C177.843 56.6699 181.859 53.3122 189.129 57.0461C192.807 58.9272 194.838 62.7833 195.468 67.0157C196.088 71.1178 195.452 75.3112 193.644 79.0451Z" fill="#B25E47"/>
<path d="M193.644 79.045C190.041 85.9579 162.409 78.1045 162.409 78.1045C157.922 76.7972 155.674 75.029 155.825 72.3108C155.975 69.5927 160.198 69.4892 159.107 66.9028C158.556 65.641 158.238 64.29 158.167 62.915C164.12 56.6322 177.73 55.861 179.197 61.7205C180.871 68.3888 184.041 78.9792 195.478 67.0157C196.094 71.1186 195.455 75.3121 193.644 79.045Z" fill="#B25E47"/>
<path d="M176.874 60.2345C182.085 56.6981 186.928 59.3692 188.283 63.263C190.248 68.9062 183.58 74.8221 190.248 79.8539" stroke="#683F1D" stroke-width="0.75" stroke-linecap="round" stroke-linejoin="round"/>
<path d="M161.684 63.9497C162.155 58.6639 170.318 53.6039 177.862 56.6324" stroke="#683F1D" stroke-width="0.75" stroke-linecap="round" stroke-linejoin="round"/>
<path d="M189.684 87.1335C189.684 87.1335 182.113 94.4884 173.864 96.8586C165.616 99.2287 158.816 94.3097 159.474 82.6378C159.474 82.4403 159.474 82.2427 159.474 82.0546C159.587 80.6344 159.756 79.2331 159.982 77.9163C161.722 67.8527 166.951 60.5729 175.632 63.3005C178.294 64.1281 175.802 73.524 177.589 77.7564C177.694 78.0173 177.826 78.2664 177.984 78.4994C178.578 79.3671 179.371 80.0799 180.297 80.578C183.232 82.2051 187.239 81.8383 188.527 79.3553C190.408 75.7625 195.525 74.0225 197.302 80.0701C198.628 84.406 193.86 88.3374 189.684 87.1335Z" fill="#FEBD9D"/>
<path d="M180.335 80.5782C179.499 81.576 178.401 82.3216 177.166 82.732C174.73 83.6725 172.378 83.3621 171.918 82.13C171.457 80.898 173.065 79.158 175.51 78.2551C176.19 77.9934 176.902 77.8257 177.627 77.7566C177.732 78.0175 177.864 78.2665 178.022 78.4996C178.616 79.3673 179.409 80.0801 180.335 80.5782Z" fill="#F4A789"/>
<path d="M161.985 82.0736C161.562 82.6944 160.622 82.8637 159.474 82.638C159.474 82.4404 159.474 82.2429 159.474 82.0548C159.587 80.6346 159.756 79.2332 159.982 77.9165C161.779 79.3179 162.644 81.0861 161.985 82.0736Z" fill="#F4A789"/>
<path d="M163.518 75.4898C163.518 75.6963 163.58 75.8981 163.694 76.0698C163.809 76.2415 163.972 76.3753 164.163 76.4543C164.354 76.5333 164.564 76.554 164.766 76.5137C164.969 76.4734 165.155 76.374 165.301 76.228C165.447 76.082 165.546 75.896 165.586 75.6935C165.627 75.4909 165.606 75.281 165.527 75.0903C165.448 74.8995 165.314 74.7365 165.142 74.6217C164.971 74.507 164.769 74.4458 164.562 74.4458C164.286 74.4458 164.02 74.5558 163.824 74.7516C163.628 74.9474 163.518 75.2129 163.518 75.4898Z" fill="#683F1D"/>
<path d="M169.303 77.0796C169.303 77.3565 169.413 77.6221 169.609 77.8178C169.804 78.0136 170.07 78.1236 170.347 78.1236C170.624 78.1236 170.889 78.0136 171.085 77.8178C171.281 77.6221 171.391 77.3565 171.391 77.0796C171.391 76.8027 171.281 76.5372 171.085 76.3414C170.889 76.1456 170.624 76.0356 170.347 76.0356C170.07 76.0356 169.804 76.1456 169.609 76.3414C169.413 76.5372 169.303 76.8027 169.303 77.0796Z" fill="#683F1D"/>
<path d="M189.872 82.7792C190.991 79.9576 193.456 78.6221 195.308 79.9576" stroke="#F4A789" stroke-width="0.75" stroke-linecap="round" stroke-linejoin="round"/>
<path d="M190.248 81.9702C193.239 79.6847 195.308 84.7918 190.512 84.7918" stroke="#F4A789" stroke-width="0.75" stroke-linecap="round" stroke-linejoin="round"/>
<path d="M160.744 70.4395C160.462 71.8032 166.303 73.6655 166.857 70.9379C167.252 68.9722 161.054 68.9722 160.744 70.4395Z" fill="#B25E47"/>
<path d="M170.394 71.314C169.754 73.6842 176.394 74.9257 177.109 73.3268C177.721 71.9724 171.109 68.6241 170.394 71.314Z" fill="#B25E47"/>
<path d="M164.356 81.8857C163.067 79.8541 163.744 78.3493 165.437 78.3493C167.525 78.3493 168.202 76.4682 168.108 73.8347" stroke="#F4A789" stroke-width="0.75" stroke-linecap="round" stroke-linejoin="round"/>
<path d="M164.318 83.9548C166.999 84.284 170.563 82.6287 170.563 82.6287C170.563 82.6287 170.394 87.3313 167.441 87.7451C164.487 88.159 164.318 83.9548 164.318 83.9548Z" fill="white" stroke="#F4A789" stroke-width="0.75" stroke-linecap="round" stroke-linejoin="round"/>
<path d="M91.8313 56.2655C89.0755 54.4973 85.9059 54.9864 84.9748 57.4224C83.6299 60.94 86.1599 63.3101 89.0003 64.2318L91.8313 56.2655Z" fill="#F9F9F9" stroke="#DDDDDD" stroke-linecap="round" stroke-linejoin="round"/>
<path d="M125.107 79.8541C129.603 81.6881 132.039 82.7509 132.782 82.1678C133.525 81.5847 136.958 73.703 136.591 72.8565C136.224 72.0101 129.18 68.2009 129.18 68.2009L125.107 79.8541Z" fill="#DDDDDD" stroke="#DDDDDD" stroke-linecap="round" stroke-linejoin="round"/>
<path d="M100.155 113.346C100.86 110.346 110.952 107.91 114.357 107.346V117.475C114.357 117.475 103.691 119.695 100.155 113.346Z" fill="#CD5A32"/>
<path d="M104.425 117.851C106.165 109.462 107.341 107.506 106.795 106.452C106.25 105.399 102.723 101.956 102.299 98.4294C101.876 94.9025 105.61 88.9771 106.927 87.1431C108.244 85.3091 110.078 83.9077 115.843 84.82C121.609 85.7323 123.866 86.5223 123.932 89.3721C123.997 92.2219 121.383 111.493 121.383 111.493C121.383 111.493 116.821 125.865 104.425 117.851Z" fill="#FEBD9D"/>
<path d="M111.601 75.8098C110.407 81.453 107.265 90.9053 106.09 95.4387C104.914 99.972 105.676 102.417 109.429 103.179C113.181 103.941 115.467 97.4514 116.229 93.1908C116.991 88.9302 119.05 78.3492 119.05 78.3492L111.601 75.8098Z" fill="#F9F9F9" stroke="#DDDDDD" stroke-linecap="round" stroke-linejoin="round"/>
<path d="M94.8693 181.412C107.661 191.984 115.73 169.957 118.693 150.629C120.538 137.666 121.437 124.587 121.383 111.493C121.383 111.493 110.717 114.465 100.155 113.374C96.9009 129.044 84.4389 172.797 94.8693 181.412Z" fill="#CD5A32"/>
<path d="M112.316 173.719C115.316 167.276 117.451 158.717 118.693 150.629C120.538 137.666 121.437 124.587 121.383 111.493" stroke="#F18661" stroke-width="0.75" stroke-linecap="round" stroke-linejoin="round"/>
<path d="M126.866 80.0797C125.399 80.6629 122.06 80.8322 117.705 80.3149C110.315 79.391 103.141 77.1987 96.4963 73.8346L105.582 54.0835C112.416 56.0566 118.875 59.1524 124.693 63.2443C127.985 65.5486 130.337 67.7306 131.155 69.1696C131.973 70.6086 130.327 78.6972 126.866 80.0797Z" fill="#F9F9F9" stroke="#DDDDDD" stroke-linecap="round" stroke-linejoin="round"/>
<path d="M126.866 80.0797C125.399 80.6628 122.06 80.8321 117.705 80.3148C122.079 75.3865 125.173 70.0349 124.693 63.2913C127.985 65.5956 130.337 67.7776 131.155 69.2166C131.973 70.6556 130.327 78.6971 126.866 80.0797Z" fill="#F9F9F9" stroke="#DDDDDD" stroke-linecap="round" stroke-linejoin="round"/>
<path d="M98.3492 75.2642C100.776 74.5494 108.234 60.0088 107.162 55.7388C106.09 51.4688 96.9666 41.6309 96.9666 41.6309C96.9666 41.6309 85.3229 61.8146 83.1691 76.7408C83.1691 76.7596 94.8222 76.3082 98.3492 75.2642Z" fill="#DDDDDD" stroke="#DDDDDD" stroke-linecap="round" stroke-linejoin="round"/>
<path d="M84.1473 48.5721L80.5638 42.6655" stroke="#DDDDDD" stroke-linecap="round" stroke-linejoin="round"/>
<path d="M70.1334 52.6821L76.4538 55.2404" stroke="#DDDDDD" stroke-linecap="round" stroke-linejoin="round"/>
<path d="M69.3904 65.4357L75.9271 64.26" stroke="#DDDDDD" stroke-linecap="round" stroke-linejoin="round"/>
<path d="M101.284 94.0655C103.898 92.7205 111.103 100.649 106.72 101.157C104.124 101.477 97.4369 96.0406 101.284 94.0655Z" fill="#FEBD9D" stroke="#F4A789" stroke-width="0.75" stroke-linecap="round" stroke-linejoin="round"/>
<path d="M101.848 89.6637C104.472 88.3187 112.194 96.3133 107.858 96.8588C105.253 97.1785 98.0012 91.6388 101.848 89.6637Z" fill="#FEBD9D" stroke="#F4A789" stroke-width="0.75" stroke-linecap="round" stroke-linejoin="round"/>
<path d="M102.93 85.1962C105.751 83.7478 114.094 92.3537 109.382 92.9368C106.588 93.2754 98.7913 87.303 102.93 85.1962Z" fill="#FEBD9D" stroke="#F4A789" stroke-width="0.75" stroke-linecap="round" stroke-linejoin="round"/>
<path d="M104.51 81.1896C107.247 79.5907 115.392 88.4881 111.253 90.3409C109.306 91.2156 100.513 83.5409 104.51 81.1896Z" fill="#FEBD9D" stroke="#F4A789" stroke-width="0.75" stroke-linecap="round" stroke-linejoin="round"/>
<path d="M116.219 90.1906C115.552 89.3159 109.353 86.372 110.078 84.0207C110.802 81.6694 118.204 84.0865 121.665 85.1963C125.126 86.3062 124.27 88.46 123.405 95.4387C123.405 95.4387 120.348 95.6174 116.219 90.1906Z" fill="#FEBD9D"/>
<path d="M116.219 90.1906C115.552 89.3159 109.353 86.372 110.078 84.0207C110.802 81.6694 118.204 84.0865 121.665 85.1963C125.126 86.3062 124.27 88.46 123.405 95.4387" stroke="#F4A789" stroke-width="0.75" stroke-linecap="round" stroke-linejoin="round"/>
</svg>
