<svg width="34" height="34" viewBox="0 0 34 34" fill="none" xmlns="http://www.w3.org/2000/svg">
<path d="M17 6.99992C17.4421 6.99992 17.866 6.82432 18.1786 6.51176C18.4911 6.1992 18.6667 5.77528 18.6667 5.33325V1.99992C18.6667 1.55789 18.4911 1.13397 18.1786 0.821407C17.866 0.508847 17.4421 0.333252 17 0.333252C16.558 0.333252 16.1341 0.508847 15.8215 0.821407C15.509 1.13397 15.3334 1.55789 15.3334 1.99992V5.33325C15.3334 5.77528 15.509 6.1992 15.8215 6.51176C16.1341 6.82432 16.558 6.99992 17 6.99992Z" fill="#ECA72C"/>
<path d="M32 15.3333H28.6667C28.2246 15.3333 27.8007 15.5088 27.4882 15.8214C27.1756 16.134 27 16.5579 27 16.9999C27 17.4419 27.1756 17.8659 27.4882 18.1784C27.8007 18.491 28.2246 18.6666 28.6667 18.6666H32C32.442 18.6666 32.866 18.491 33.1785 18.1784C33.4911 17.8659 33.6667 17.4419 33.6667 16.9999C33.6667 16.5579 33.4911 16.134 33.1785 15.8214C32.866 15.5088 32.442 15.3333 32 15.3333Z" fill="#ECA72C"/>
<path d="M7.00004 16.9999C7.00004 16.5579 6.82445 16.134 6.51188 15.8214C6.19932 15.5088 5.7754 15.3333 5.33337 15.3333H2.00004C1.55801 15.3333 1.13409 15.5088 0.821529 15.8214C0.508969 16.134 0.333374 16.5579 0.333374 16.9999C0.333374 17.4419 0.508969 17.8659 0.821529 18.1784C1.13409 18.491 1.55801 18.6666 2.00004 18.6666H5.33337C5.7754 18.6666 6.19932 18.491 6.51188 18.1784C6.82445 17.8659 7.00004 17.4419 7.00004 16.9999Z" fill="#ECA72C"/>
<path d="M7.36672 5.33325C7.04183 5.02604 6.60821 4.86047 6.16125 4.87297C5.71429 4.88548 5.2906 5.07502 4.98339 5.39991C4.67618 5.7248 4.51062 6.15842 4.52312 6.60539C4.53562 7.05235 4.72517 7.47604 5.05006 7.78325L7.45006 10.0999C7.61112 10.2554 7.80186 10.3769 8.01089 10.4571C8.21993 10.5373 8.44298 10.5745 8.66673 10.5666C8.89123 10.5657 9.11325 10.5195 9.31946 10.4307C9.52567 10.3419 9.71181 10.2124 9.86672 10.0499C10.1771 9.73764 10.3514 9.31522 10.3514 8.87491C10.3514 8.4346 10.1771 8.01218 9.86672 7.69991L7.36672 5.33325Z" fill="#ECA72C"/>
<path d="M25.3333 10.5665C25.7624 10.5648 26.1743 10.3976 26.4833 10.0998L28.8833 7.78316C29.1761 7.47724 29.3415 7.07136 29.3458 6.64794C29.3502 6.22452 29.1932 5.81532 28.9068 5.50344C28.6204 5.19156 28.226 5.0004 27.8037 4.96877C27.3815 4.93714 26.963 5.06743 26.6333 5.33316L24.2333 7.69982C23.9229 8.01209 23.7487 8.43451 23.7487 8.87482C23.7487 9.31513 23.9229 9.73755 24.2333 10.0498C24.5219 10.3544 24.9147 10.5389 25.3333 10.5665Z" fill="#ECA72C"/>
<path d="M17 27C16.558 27 16.1341 27.1756 15.8215 27.4882C15.509 27.8007 15.3334 28.2246 15.3334 28.6667V32C15.3334 32.442 15.509 32.866 15.8215 33.1785C16.1341 33.4911 16.558 33.6667 17 33.6667C17.4421 33.6667 17.866 33.4911 18.1786 33.1785C18.4911 32.866 18.6667 32.442 18.6667 32V28.6667C18.6667 28.2246 18.4911 27.8007 18.1786 27.4882C17.866 27.1756 17.4421 27 17 27Z" fill="#ECA72C"/>
<path d="M26.5501 23.8997C26.2318 23.5925 25.8045 23.4243 25.3623 23.4321C24.92 23.44 24.4989 23.6231 24.1917 23.9414C23.8845 24.2597 23.7163 24.6869 23.7241 25.1292C23.732 25.5715 23.9151 25.9925 24.2334 26.2997L26.6334 28.6664C26.9424 28.9642 27.3543 29.1314 27.7834 29.1331C28.0067 29.1344 28.228 29.0908 28.4342 29.0049C28.6403 28.919 28.8271 28.7926 28.9834 28.6331C29.1396 28.4781 29.2636 28.2938 29.3482 28.0907C29.4328 27.8876 29.4764 27.6698 29.4764 27.4497C29.4764 27.2297 29.4328 27.0119 29.3482 26.8088C29.2636 26.6057 29.1396 26.4213 28.9834 26.2664L26.5501 23.8997Z" fill="#ECA72C"/>
<path d="M7.45 23.8998L5.05 26.2165C4.89379 26.3714 4.7698 26.5557 4.68519 26.7588C4.60057 26.9619 4.55701 27.1798 4.55701 27.3998C4.55701 27.6198 4.60057 27.8376 4.68519 28.0407C4.7698 28.2438 4.89379 28.4282 5.05 28.5831C5.20632 28.7426 5.3931 28.8691 5.59924 28.9549C5.80539 29.0408 6.02669 29.0844 6.25 29.0831C6.66086 29.0866 7.05853 28.9382 7.36667 28.6665L9.76667 26.3498C10.0849 26.0426 10.2681 25.6215 10.2759 25.1793C10.2837 24.737 10.1155 24.3097 9.80834 23.9915C9.50113 23.6732 9.08007 23.49 8.6378 23.4822C8.19553 23.4744 7.76826 23.6426 7.45 23.9498V23.8998Z" fill="#ECA72C"/>
<path d="M17 10.3333C15.6815 10.3333 14.3926 10.7242 13.2962 11.4568C12.1999 12.1893 11.3454 13.2305 10.8408 14.4487C10.3363 15.6669 10.2042 17.0073 10.4615 18.3005C10.7187 19.5937 11.3536 20.7816 12.286 21.714C13.2183 22.6463 14.4062 23.2813 15.6994 23.5385C16.9926 23.7957 18.3331 23.6637 19.5513 23.1591C20.7694 22.6545 21.8106 21.8 22.5432 20.7037C23.2757 19.6074 23.6667 18.3185 23.6667 16.9999C23.6667 15.2318 22.9643 13.5361 21.7141 12.2859C20.4638 11.0356 18.7682 10.3333 17 10.3333V10.3333Z" fill="#ECA72C"/>
</svg>
